<svg width="160" height="73" viewBox="0 0 160 73" fill="none" xmlns="http://www.w3.org/2000/svg">
<path d="M117.619 32.1005L111.217 55.3809" stroke="black" stroke-width="2"/>
<path d="M107.725 39.6667L111.346 37.3386L110.312 35.5926H108.76L107.725 39.6667ZM107.725 39.6667V42.5767L112.381 41.4127" stroke="black" stroke-width="2"/>
<path d="M122.275 32.1005L119.074 43.7407L115.873 55.3809" stroke="black" stroke-width="2"/>
<path d="M106.561 35.5926L101.047 41.4127L101.598 36.7566L96.0847 42.5767L98.8416 35.5926L97.7388 34.4286" stroke="black" stroke-width="2"/>
<path d="M86.7725 36.1746H89.4505M96.0846 36.1746H89.4505M89.4505 36.1746L91.1547 32.1005L86.7725 42.5767H89.2374L92.2502 40.8307" stroke="black" stroke-width="2"/>
<path d="M74.5503 36.1746L72.2222 35.0106L70.4762 37.9206V41.9947H72.2222L74.5503 36.1746ZM74.5503 36.1746V41.9947H76.2963" stroke="black" stroke-width="2"/>
<path d="M78.6243 42.5767L80.9524 37.9207M80.9524 37.9207V36.1746L79.2063 37.3386M80.9524 37.9207L85.0264 36.1746V37.9207" stroke="black" stroke-width="2"/>
<path d="M121.111 22.2063L118.783 29.1905L121.111 23.9524L122.857 22.7883H124.603L122.857 29.1905H124.603M117.619 22.7883H115.873L113.545 28.0264L114.127 29.1905H115.873L117.619 25.6984V22.7883Z" stroke="black" stroke-width="2"/>
<path d="M129.841 29.1905H127.513L126.349 28.0264L126.931 24.5344L128.677 22.2063H132.169L129.841 29.1905ZM129.841 29.1905L128.677 33.2645L131.005 32.1005L133.333 33.2645L130.423 41.4127L127.513 43.7407L126.931 37.9206L124.603 39.0846" stroke="black" stroke-width="2"/>
<path d="M111.217 27.4444L108.307 29.1905L105.979 27.4444L104.233 23.3704L100.741 25.6984L97.2487 29.7725L103.069 19.8783L111.217 4.74603L104.233 10.1428" stroke="black" stroke-width="2"/>
<path d="M92.5926 25.6984H96.0846" stroke="black" stroke-width="2"/>
<path d="M89.6826 23.3704L87.3545 22.2063L85.6085 25.1164V29.1905H87.3545L89.6826 23.3704ZM89.6826 23.3704V29.1905H91.4286" stroke="black" stroke-width="2"/>
<path d="M55.9259 22.7883L53.5979 21.6243L51.8519 24.5344V28.6085H53.5979L55.9259 22.7883ZM55.9259 22.7883V28.6085H57.672" stroke="black" stroke-width="2"/>
<path d="M78.6243 21.6243L76.2963 27.3101V29.1905H79.2063L83.2804 21.6691L80.9523 29.1905H83.2804" stroke="black" stroke-width="2"/>
<path d="M68.7302 31.5185H55.3439L49.5238 53.0529L68.7302 11.1481L65.2381 13.4762M68.7302 31.5185L82.1164 3L75.7143 7.28571M68.7302 31.5185L58.254 61.7831" stroke="black" stroke-width="2"/>
<path d="M42.5397 27.4444L39.6296 29.1905L37.3016 27.4444L35.5556 23.3704L32.0635 25.6984L28.5714 29.7725L34.3915 19.8783L42.5397 4.74603L35.5556 10.1428M44.8677 25.6984L48.9418 23.3704L47.7778 21.6243H46.0318L44.8677 25.6984ZM44.8677 25.6984V28.6085L50.1058 27.4444" stroke="black" stroke-width="2"/>
<path d="M17.4512 72.3493H20.9619V72.8571H16.8457V65.7478H17.4512V72.3493ZM26.0449 69.4489H22.7197V72.3493H26.543V72.8571H22.1191V65.7478H26.5186V66.2605H22.7197V68.9411H26.0449V69.4489ZM31.6504 70.865H28.4229L27.6904 72.8571H27.0605L29.751 65.7478H30.3223L33.0127 72.8571H32.3877L31.6504 70.865ZM28.6084 70.3523H31.46L30.0342 66.4802L28.6084 70.3523ZM39.3311 72.8571H38.7256V69.4489H34.6631V72.8571H34.0625V65.7478H34.6631V68.9411H38.7256V65.7478H39.3311V72.8571ZM48.8428 72.8571H48.2373V69.4489H44.1748V72.8571H43.5742V65.7478H44.1748V68.9411H48.2373V65.7478H48.8428V72.8571ZM55.5518 65.7478V70.6013C55.5485 71.0798 55.4427 71.4965 55.2344 71.8513C55.026 72.2061 54.7314 72.4795 54.3506 72.6716C53.973 72.8604 53.5384 72.9548 53.0469 72.9548C52.2982 72.9548 51.6976 72.7514 51.2451 72.3445C50.7959 71.9343 50.5632 71.3679 50.5469 70.6452V65.7478H51.1426V70.5573C51.1426 71.1563 51.3135 71.6218 51.6553 71.9538C51.9971 72.2826 52.4609 72.447 53.0469 72.447C53.6328 72.447 54.0951 72.281 54.4336 71.9489C54.7754 71.6169 54.9463 71.1547 54.9463 70.5622V65.7478H55.5518ZM60.957 70.865H57.7295L56.9971 72.8571H56.3672L59.0576 65.7478H59.6289L62.3193 72.8571H61.6943L60.957 70.865ZM57.915 70.3523H60.7666L59.3408 66.4802L57.915 70.3523ZM65.0488 69.9665H62.71V69.4734H65.0488V69.9665ZM66.8359 72.3493H70.3467V72.8571H66.2305V65.7478H66.8359V72.3493ZM76.4355 69.6882C76.4355 70.3425 76.3216 70.917 76.0938 71.4118C75.8691 71.9066 75.5469 72.2875 75.127 72.5544C74.707 72.8213 74.222 72.9548 73.6719 72.9548C72.8418 72.9548 72.1712 72.6586 71.6602 72.0661C71.1491 71.4704 70.8936 70.668 70.8936 69.6589V68.9265C70.8936 68.2787 71.0075 67.7058 71.2354 67.2077C71.4665 66.7064 71.792 66.3223 72.2119 66.0554C72.6318 65.7852 73.1152 65.6501 73.6621 65.6501C74.209 65.6501 74.6908 65.782 75.1074 66.0456C75.5273 66.3093 75.8512 66.682 76.0791 67.1638C76.307 67.6456 76.4258 68.2038 76.4355 68.8386V69.6882ZM75.835 68.9167C75.835 68.0606 75.6413 67.39 75.2539 66.905C74.8665 66.42 74.3359 66.1775 73.6621 66.1775C73.0013 66.1775 72.474 66.4216 72.0801 66.9099C71.6895 67.3949 71.4941 68.0736 71.4941 68.946V69.6882C71.4941 70.5313 71.6895 71.2002 72.0801 71.695C72.4707 72.1866 73.0013 72.4323 73.6719 72.4323C74.3522 72.4323 74.8828 72.1898 75.2637 71.7048C75.6445 71.2165 75.835 70.5378 75.835 69.6687V68.9167ZM83.2422 72.8571H82.6416L78.5547 66.7732V72.8571H77.9492V65.7478H78.5547L82.6465 71.8366V65.7478H83.2422V72.8571ZM90.1807 72.0124C89.9723 72.3086 89.6452 72.5398 89.1992 72.7058C88.7565 72.8718 88.2601 72.9548 87.71 72.9548C87.1533 72.9548 86.6585 72.8213 86.2256 72.5544C85.7926 72.2875 85.4574 71.9099 85.2197 71.4216C84.9821 70.9333 84.8617 70.3734 84.8584 69.7419V68.8435C84.8584 67.8571 85.1074 67.0792 85.6055 66.5095C86.1035 65.9366 86.7725 65.6501 87.6123 65.6501C88.3447 65.6501 88.9339 65.8373 89.3799 66.2116C89.8258 66.5827 90.0911 67.0954 90.1758 67.7497H89.5752C89.4873 67.2289 89.2741 66.835 88.9355 66.5681C88.6003 66.2979 88.1608 66.1628 87.6172 66.1628C86.9531 66.1628 86.4274 66.3988 86.04 66.8708C85.6527 67.3428 85.459 68.0085 85.459 68.8679V69.7077C85.459 70.2481 85.5501 70.7266 85.7324 71.1433C85.918 71.5567 86.1816 71.8773 86.5234 72.1052C86.8685 72.3331 87.264 72.447 87.71 72.447C88.2275 72.447 88.6719 72.3656 89.043 72.2029C89.2839 72.0954 89.4629 71.9701 89.5801 71.8269V69.9909H87.6709V69.4831H90.1807V72.0124ZM99.585 72.8571H98.9795V69.4489H94.917V72.8571H94.3164V65.7478H94.917V68.9411H98.9795V65.7478H99.585V72.8571ZM105.322 70.865H102.095L101.362 72.8571H100.732L103.423 65.7478H103.994L106.685 72.8571H106.06L105.322 70.865ZM102.28 70.3523H105.132L103.706 66.4802L102.28 70.3523ZM110.391 69.8982H108.325V72.8571H107.72V65.7478H110.029C110.788 65.7478 111.38 65.9317 111.807 66.2995C112.233 66.6674 112.446 67.1817 112.446 67.8425C112.446 68.2982 112.313 68.7002 112.046 69.0486C111.779 69.3969 111.421 69.6377 110.972 69.7712L112.749 72.7937V72.8571H112.109L110.391 69.8982ZM108.325 69.3855H110.166C110.671 69.3855 111.076 69.2422 111.382 68.9558C111.688 68.6693 111.841 68.2982 111.841 67.8425C111.841 67.3412 111.681 66.9522 111.362 66.6755C111.043 66.3988 110.596 66.2605 110.02 66.2605H108.325V69.3855ZM118.516 66.2605H116.079V72.8571H115.479V66.2605H113.047V65.7478H118.516V66.2605ZM121.06 70.9382L121.279 72.0417L121.548 70.987L123.091 65.7478H123.633L125.156 70.987L125.42 72.0515L125.654 70.9382L126.938 65.7478H127.554L125.732 72.8571H125.156L123.545 67.2956L123.364 66.5925L123.188 67.2956L121.538 72.8571H120.962L119.146 65.7478H119.761L121.06 70.9382ZM132.637 69.4489H129.312V72.3493H133.135V72.8571H128.711V65.7478H133.11V66.2605H129.312V68.9411H132.637V69.4489ZM135.01 72.3493H138.521V72.8571H134.404V65.7478H135.01V72.3493ZM140.283 72.3493H143.794V72.8571H139.678V65.7478H140.283V72.3493Z" fill="black"/>
</svg>
