<svg height="512pt" viewBox="0 0 512 512" width="512pt" xmlns="http://www.w3.org/2000/svg"><path d="m316 186h-14.871094c-5.523437 0-10 4.476562-10 10s4.476563 10 10 10h4.871094v100h-100v-100h5.128906c5.519532 0 10-4.476562 10-10s-4.480468-10-10-10h-15.128906c-5.523438 0-10 4.476562-10 10v120c0 5.523438 4.476562 10 10 10h120c5.523438 0 10-4.476562 10-10v-120c0-5.523438-4.476562-10-10-10zm0 0"/><path d="m478 270c-15.269531 0-28.21875 10.117188-32.496094 24h-79.503906v-75.933594l25.507812-.054687c4.28125 13.875 17.226563 23.988281 32.492188 23.988281 18.746094 0 34-15.253906 34-34s-15.253906-34-34-34c-15.273438 0-28.222656 10.121094-32.5 24.011719l-25.5.054687v-2.066406c0-27.570312-22.429688-50-50-50h-2v-79.503906c13.882812-4.28125 24-17.226563 24-32.496094 0-18.746094-15.253906-34-34-34s-34 15.253906-34 34c0 15.269531 10.117188 28.21875 24 32.496094v79.503906h-76v-49.503906c13.882812-4.28125 24-17.226563 24-32.496094 0-18.746094-15.253906-34-34-34s-34 15.253906-34 34c0 15.269531 10.117188 28.21875 24 32.496094v49.503906h-2c-27.570312 0-50 22.429688-50 50v2h-79.503906c-4.277344-13.882812-17.226563-24-32.496094-24-18.746094 0-34 15.253906-34 34s15.253906 34 34 34c15.269531 0 28.21875-10.117188 32.496094-24h79.503906v76h-25.503906c-4.28125-13.882812-17.226563-24-32.496094-24-18.746094 0-34 15.253906-34 34s15.253906 34 34 34c15.269531 0 28.21875-10.117188 32.496094-24h25.503906v2c0 27.570312 22.429688 50 50 50h2v79.503906c-13.882812 4.28125-24 17.226563-24 32.496094 0 18.746094 15.253906 34 34 34s34-15.253906 34-34c0-15.269531-10.117188-28.21875-24-32.496094v-79.503906h76v49.503906c-13.882812 4.28125-24 17.226563-24 32.496094 0 18.746094 15.253906 34 34 34s34-15.253906 34-34c0-15.269531-10.117188-28.21875-24-32.496094v-49.503906h2c27.570312 0 50-22.429688 50-50v-2h79.503906c4.28125 13.882812 17.226563 24 32.496094 24 18.746094 0 34-15.253906 34-34s-15.253906-34-34-34zm-54-76c7.71875 0 14 6.28125 14 14s-6.28125 14-14 14-14-6.28125-14-14 6.28125-14 14-14zm-120-174c7.71875 0 14 6.28125 14 14s-6.28125 14-14 14-14-6.28125-14-14 6.28125-14 14-14zm-96 30c7.71875 0 14 6.28125 14 14s-6.28125 14-14 14-14-6.28125-14-14 6.28125-14 14-14zm-174 172c-7.71875 0-14-6.28125-14-14s6.28125-14 14-14 14 6.28125 14 14-6.28125 14-14 14zm54 96c-7.71875 0-14-6.28125-14-14s6.28125-14 14-14 14 6.28125 14 14-6.28125 14-14 14zm120 174c-7.71875 0-14-6.28125-14-14s6.28125-14 14-14 14 6.28125 14 14-6.28125 14-14 14zm96-30c-7.71875 0-14-6.28125-14-14s6.28125-14 14-14 14 6.28125 14 14-6.28125 14-14 14zm42-146c0 16.542969-13.457031 30-30 30h-120c-16.542969 0-30-13.457031-30-30v-120c0-16.542969 13.457031-30 30-30h120c16.542969 0 30 13.457031 30 30zm132 2c-7.71875 0-14-6.28125-14-14s6.28125-14 14-14 14 6.28125 14 14-6.28125 14-14 14zm0 0"/><path d="m256 206c2.628906 0 5.210938-1.070312 7.070312-2.929688 1.859376-1.859374 2.929688-4.441406 2.929688-7.070312s-1.070312-5.210938-2.929688-7.070312c-1.859374-1.859376-4.441406-2.929688-7.070312-2.929688s-5.210938 1.070312-7.070312 2.929688c-1.859376 1.859374-2.929688 4.441406-2.929688 7.070312s1.070312 5.210938 2.929688 7.070312c1.859374 1.859376 4.441406 2.929688 7.070312 2.929688zm0 0"/></svg>